<svg width="415" height="106" viewBox="0 0 415 106" fill="none" xmlns="http://www.w3.org/2000/svg">
<path d="M318.285 62.4682L329.203 1.19965C328.796 0.182748 313.291 3.65718 305.589 5.5215V9.08068C313.308 6.23334 314.73 10.2671 314.476 12.6398L305.335 62.4682H318.285Z" fill="#F6AD09"/>
<path d="M370.335 31.1987V29.1648C376.175 26.6218 386.941 25.1481 387.347 27.3853C387.753 29.6224 386.501 36.9611 385.824 40.3508C386.839 36.8764 391.207 29.2157 400.55 26.3683C409.894 23.521 410.876 29.9275 410.199 33.4867L406.39 54.5875C406.187 58.4517 411.553 56.1976 414.261 54.5875C417.918 56.0112 407.152 61.1966 400.55 62.4677C398.011 62.7219 392.73 62.1634 395.98 51.791C399.23 41.4186 403.597 32.469 399.281 32.469C389.751 33.4867 382.946 51.9605 381.761 62.4685H371.351C372.705 54.2485 375.566 36.9442 376.175 33.4867C376.785 30.0292 372.536 30.5207 370.335 31.1987Z" fill="#F6AD09"/>
<path d="M326.41 31.1987V29.1648C332.249 26.6218 343.015 25.1481 343.421 27.3853C343.828 29.6224 342.575 36.9611 341.898 40.3508C342.914 36.8764 347.281 29.2157 356.624 26.3683C365.968 23.521 366.95 29.9275 366.273 33.4867L362.464 54.5875C362.261 58.4517 367.627 56.1976 370.335 54.5875C373.992 56.0112 363.226 61.1966 356.624 62.4677C354.085 62.7219 348.804 62.1634 352.054 51.791C355.304 41.4186 359.671 32.469 355.355 32.469C345.825 33.4867 339.02 51.9605 337.835 62.4685H327.425C328.779 54.2485 331.64 36.9442 332.249 33.4867C332.859 30.0292 328.61 30.5207 326.41 31.1987Z" fill="#F6AD09"/>
<path d="M175.663 0.0418089C185.263 -0.367191 191.22 2.27439 194.756 5.78475C198.28 9.28256 199.369 13.6145 199.287 16.5566C199.902 21.761 196.862 25.9843 192.888 29.1279C189.008 32.1965 184.191 34.2754 180.834 35.2879L182.512 39.6088L182.514 39.6128L182.515 39.6172C186.758 51.7543 196.922 61.5464 201.47 64.9192L201.717 65.1029L201.49 65.311C200.838 65.9098 199.938 66.3043 198.932 66.5563C197.923 66.8089 196.789 66.923 195.649 66.9476C193.371 66.9968 191.041 66.6891 189.588 66.3895L189.58 66.388L189.572 66.386C186.721 65.6074 184.024 63.7478 181.537 61.2677C179.05 58.7862 176.76 55.6703 174.728 52.3549C170.663 45.7243 167.609 38.2689 166.038 33.4239L165.928 33.0858L166.283 33.0913C174.467 33.2173 179.714 30.2582 182.705 26.1407C185.703 22.013 186.459 16.6854 185.581 12.0376C184.897 8.42016 182.079 6.70887 178.742 6.0494C175.474 5.40362 171.771 5.7859 169.295 6.35328L159.928 62.369L159.893 62.581H145.914L145.971 62.2796C148.935 46.681 154.959 14.7941 155.364 11.9542C155.461 11.2717 155.405 10.7706 155.268 10.406C155.132 10.0453 154.911 9.80488 154.651 9.64581C154.119 9.31965 153.397 9.32219 152.88 9.44173L152.874 9.44273L146.78 10.7139L146.593 10.7531L143.85 5.53499L144.065 5.41383C145.37 4.6733 148.499 3.53564 153.673 2.48129C158.855 1.42531 166.105 0.449062 175.663 0.0418089Z" fill="#3981D5"/>
<path d="M245.99 25.0811C250.237 23.8091 255.411 23.8327 260.861 27.0246L261.057 27.1393L257.735 34.6231L257.478 34.2536C256.235 32.4704 253.78 30.3989 251.287 29.5341C250.043 29.1027 248.813 28.9798 247.728 29.3166C246.653 29.65 245.684 30.4444 244.97 31.9199C244.576 32.9746 244.526 34.4003 245.448 35.9111C246.378 37.4341 248.311 39.0689 251.938 40.4812C255.658 41.9294 257.666 44.2611 258.48 46.8741C259.292 49.4761 258.909 52.3218 257.922 54.7948L257.917 54.8068L257.911 54.8182C255.24 59.9506 248.622 64.2385 241.1 64.3194C236.529 64.3685 233.632 63.2838 229.879 61.0199L229.693 60.9072L232.721 53.4661L232.992 53.7675C234.501 55.4457 237.019 57.5739 239.669 58.5288C240.99 59.0051 242.328 59.184 243.585 58.8863C244.833 58.5905 246.027 57.8179 247.061 56.343C247.713 55.1787 247.658 53.3725 246.367 51.4586C245.073 49.5412 242.544 47.5347 238.305 46.0424L238.297 46.0399L238.29 46.0369C235.77 44.9715 233.75 42.7996 233.177 40.0681C232.601 37.3289 233.49 34.0804 236.679 30.8841C238.442 28.9053 241.755 26.3497 245.99 25.0811Z" fill="#3981D5"/>
<path fill-rule="evenodd" clip-rule="evenodd" d="M202.905 33.1781C211.179 23.6811 221.308 23.8328 225.575 25.1591L225.774 25.2231L225.781 25.2256L225.787 25.2281C228.057 26.1284 230.774 28.044 231.357 30.8856C231.945 33.7549 230.331 37.4019 224.318 41.6878L224.306 41.6962L224.293 41.7037C222.593 42.6396 219.804 44.0422 216.954 45.2117C214.229 46.3299 211.408 47.2511 209.43 47.3225C209.352 48.874 209.489 50.6187 209.967 52.2233C210.468 53.9089 211.339 55.4216 212.709 56.4071C215.428 58.3642 220.288 58.3425 228.603 52.9616L228.995 52.7079V56.6042L228.897 56.6802C226.552 58.5154 222.567 61.0097 218.217 62.5354C213.876 64.0581 209.113 64.6356 205.261 62.5507C200.5 59.9743 197.271 55.6499 196.56 50.4447C195.85 45.2395 197.663 39.1941 202.905 33.1781ZM220.536 28.689C218.922 28.2558 216.524 28.5353 214.321 30.6547C212.052 32.8371 210.007 36.9509 209.191 44.2012L209.152 44.5563L209.5 44.4773C212.151 43.878 215.906 42.3881 218.545 39.8496C219.867 38.5776 220.916 37.0353 221.396 35.204C221.877 33.3702 221.783 31.2661 220.852 28.8831L220.808 28.7689L220.69 28.7327L220.536 28.689Z" fill="#3981D5"/>
<path d="M280.839 25.2102H291.501L290.655 30.2948H279.482L275.716 52.1657C275.803 53.0218 276.147 54.1858 276.876 54.9652C277.241 55.355 277.701 55.6471 278.276 55.7631C278.85 55.8789 279.562 55.823 280.437 55.4835L288.016 51.8201L289.398 54.5868L289.489 54.77L289.33 54.8981C286.905 56.8576 282.874 59.5917 278.652 61.4291C276.541 62.3478 274.373 63.0465 272.328 63.3085C270.284 63.5704 268.345 63.3977 266.71 62.5527L266.702 62.5488C265.231 61.7201 262.756 58.4965 263.783 52.1175C264.779 45.9387 266.829 35.1939 267.788 30.2948H261.388L262.779 26.396L262.839 26.2271H269.158L271.948 12.5133L283.127 11.7134L280.839 25.2102Z" fill="#3981D5"/>
<path d="M165.295 79.9644H168.039L170.938 87.0478H171.061L173.96 79.9644H176.704V90.5072H174.546V83.6451H174.458L171.734 90.4557H170.265L167.541 83.6193H167.453V90.5072H165.295V79.9644Z" fill="white"/>
<path d="M189.656 85.2358C189.656 86.3854 189.439 87.3635 189.004 88.17C188.572 88.9765 187.983 89.5926 187.236 90.0181C186.492 90.4402 185.656 90.6513 184.728 90.6513C183.793 90.6513 182.953 90.4385 182.21 90.013C181.466 89.5874 180.879 88.9714 180.447 88.1649C180.015 87.3584 179.8 86.382 179.8 85.2358C179.8 84.0861 180.015 83.108 180.447 82.3015C180.879 81.495 181.466 80.8807 182.21 80.4586C182.953 80.033 183.793 79.8202 184.728 79.8202C185.656 79.8202 186.492 80.033 187.236 80.4586C187.983 80.8807 188.572 81.495 189.004 82.3015C189.439 83.108 189.656 84.0861 189.656 85.2358ZM187.4 85.2358C187.4 84.491 187.289 83.863 187.066 83.3517C186.847 82.8403 186.537 82.4525 186.136 82.1882C185.735 81.924 185.266 81.7919 184.728 81.7919C184.19 81.7919 183.721 81.924 183.32 82.1882C182.919 82.4525 182.607 82.8403 182.385 83.3517C182.165 83.863 182.056 84.491 182.056 85.2358C182.056 85.9805 182.165 86.6085 182.385 87.1199C182.607 87.6312 182.919 88.019 183.32 88.2833C183.721 88.5476 184.19 88.6797 184.728 88.6797C185.266 88.6797 185.735 88.5476 186.136 88.2833C186.537 88.019 186.847 87.6312 187.066 87.1199C187.289 86.6085 187.4 85.9805 187.4 85.2358Z" fill="white"/>
<path d="M201.555 79.9644V90.5072H199.633L195.054 83.8716H194.977V90.5072H192.752V79.9644H194.705L199.248 86.5948H199.34V79.9644H201.555Z" fill="white"/>
<path d="M204.44 81.8022V79.9644H213.084V81.8022H209.862V90.5072H207.663V81.8022H204.44Z" fill="white"/>
<path d="M222.454 83.3722C222.382 83.1217 222.281 82.9004 222.15 82.7082C222.02 82.5126 221.861 82.3478 221.672 82.214C221.487 82.0767 221.275 81.972 221.035 81.9C220.799 81.8279 220.537 81.7919 220.249 81.7919C219.711 81.7919 219.238 81.9257 218.83 82.1934C218.426 82.4611 218.111 82.8506 217.885 83.3619C217.659 83.8699 217.546 84.4911 217.546 85.2255C217.546 85.9599 217.657 86.5845 217.88 87.0993C218.102 87.6141 218.418 88.007 218.825 88.2782C219.233 88.5458 219.714 88.6797 220.269 88.6797C220.773 88.6797 221.203 88.5904 221.559 88.412C221.919 88.2301 222.193 87.9744 222.382 87.645C222.573 87.3155 222.669 86.926 222.669 86.4764L223.122 86.5433H220.408V84.8651H224.812V86.1933C224.812 87.1199 224.617 87.9161 224.227 88.5819C223.836 89.2442 223.298 89.7556 222.613 90.1159C221.928 90.4728 221.143 90.6513 220.259 90.6513C219.272 90.6513 218.406 90.4334 217.659 89.9975C216.912 89.5582 216.329 88.9353 215.911 88.1289C215.497 87.3189 215.29 86.358 215.29 85.2461C215.29 84.3915 215.413 83.6297 215.66 82.9604C215.91 82.2878 216.259 81.7181 216.708 81.2514C217.157 80.7846 217.679 80.4294 218.275 80.1857C218.872 79.9421 219.517 79.8202 220.213 79.8202C220.809 79.8202 221.364 79.9078 221.878 80.0828C222.392 80.2544 222.848 80.498 223.245 80.8138C223.646 81.1295 223.973 81.5053 224.227 81.9412C224.48 82.3736 224.643 82.8506 224.715 83.3722H222.454Z" fill="white"/>
<path d="M237.603 85.2358C237.603 86.3854 237.385 87.3635 236.95 88.17C236.519 88.9765 235.929 89.5926 235.182 90.0181C234.439 90.4402 233.603 90.6513 232.675 90.6513C231.739 90.6513 230.9 90.4385 230.156 90.013C229.413 89.5874 228.825 88.9714 228.394 88.1649C227.962 87.3584 227.746 86.382 227.746 85.2358C227.746 84.0861 227.962 83.108 228.394 82.3015C228.825 81.495 229.413 80.8807 230.156 80.4586C230.9 80.033 231.739 79.8202 232.675 79.8202C233.603 79.8202 234.439 80.033 235.182 80.4586C235.929 80.8807 236.519 81.495 236.95 82.3015C237.385 83.108 237.603 84.0861 237.603 85.2358ZM235.347 85.2358C235.347 84.491 235.236 83.863 235.013 83.3517C234.794 82.8403 234.484 82.4525 234.083 82.1882C233.682 81.924 233.212 81.7919 232.675 81.7919C232.137 81.7919 231.667 81.924 231.266 82.1882C230.866 82.4525 230.554 82.8403 230.331 83.3517C230.112 83.863 230.002 84.491 230.002 85.2358C230.002 85.9805 230.112 86.6085 230.331 87.1199C230.554 87.6312 230.866 88.019 231.266 88.2833C231.667 88.5476 232.137 88.6797 232.675 88.6797C233.212 88.6797 233.682 88.5476 234.083 88.2833C234.484 88.019 234.794 87.6312 235.013 87.1199C235.236 86.6085 235.347 85.9805 235.347 85.2358Z" fill="white"/>
<path d="M240.699 79.9644H243.443L246.341 87.0478H246.465L249.363 79.9644H252.108V90.5072H249.949V83.6451H249.862L247.138 90.4557H245.668L242.944 83.6193H242.857V90.5072H240.699V79.9644Z" fill="white"/>
<path d="M255.388 90.5072V79.9644H262.48V81.8022H257.613V84.3143H262.115V86.1521H257.613V88.6694H262.501V90.5072H255.388Z" fill="white"/>
<path d="M265.696 90.5072V79.9644H269.849C270.644 79.9644 271.322 80.1068 271.884 80.3917C272.449 80.6731 272.879 81.0729 273.174 81.5911C273.472 82.1059 273.621 82.7116 273.621 83.4083C273.621 84.1084 273.47 84.7107 273.169 85.2152C272.867 85.7162 272.43 86.1006 271.858 86.3683C271.29 86.636 270.601 86.7698 269.792 86.7698H267.012V84.9784H269.433C269.857 84.9784 270.21 84.92 270.491 84.8034C270.772 84.6867 270.981 84.5116 271.118 84.2783C271.259 84.0449 271.329 83.7549 271.329 83.4083C271.329 83.0582 271.259 82.7631 271.118 82.5229C270.981 82.2826 270.771 82.1007 270.486 81.9772C270.205 81.8502 269.851 81.7867 269.422 81.7867H267.922V90.5072H265.696ZM271.38 85.7094L273.996 90.5072H271.54L268.98 85.7094H271.38Z" fill="white"/>
<path d="M275.586 79.9644H278.079L280.478 84.5048H280.581L282.981 79.9644H285.474L281.635 86.7801V90.5072H279.425V86.7801L275.586 79.9644Z" fill="white"/>
<path d="M289.485 89.0658L289.429 89.632C289.384 90.085 289.299 90.5363 289.172 90.9859C289.049 91.4389 288.918 91.849 288.781 92.2162C288.648 92.5835 288.54 92.8717 288.458 93.0811H287.039C287.091 92.8786 287.161 92.5955 287.25 92.2317C287.339 91.8713 287.423 91.4664 287.502 91.0168C287.58 90.5672 287.63 90.1091 287.651 89.6423L287.676 89.0658H289.485Z" fill="white"/>
<path d="M299.092 90.5072H296.707L300.34 79.9644H303.208L306.836 90.5072H304.452L301.815 82.3736H301.733L299.092 90.5072ZM298.942 86.3631H304.575V88.1031H298.942V86.3631Z" fill="white"/>
<path d="M309.55 90.5072V79.9644H311.775V88.6694H316.288V90.5072H309.55Z" fill="white"/>
<path d="M321.291 90.5072H318.907L322.54 79.9644H325.408L329.036 90.5072H326.651L324.015 82.3736H323.933L321.291 90.5072ZM321.142 86.3631H326.775V88.1031H321.142V86.3631Z" fill="white"/>
<path d="M331.75 90.5072V79.9644H335.964C336.738 79.9644 337.384 80.0793 337.901 80.3093C338.419 80.5392 338.808 80.8584 339.068 81.2668C339.328 81.6717 339.459 82.1385 339.459 82.667C339.459 83.0788 339.376 83.4409 339.212 83.7532C339.047 84.0621 338.821 84.316 338.534 84.5151C338.249 84.7107 337.924 84.8497 337.557 84.9321V85.035C337.958 85.0522 338.333 85.1654 338.683 85.3748C339.035 85.5841 339.322 85.8775 339.541 86.255C339.76 86.6291 339.87 87.0753 339.87 87.5935C339.87 88.1529 339.731 88.6522 339.453 89.0915C339.179 89.5273 338.773 89.8723 338.235 90.1262C337.698 90.3802 337.035 90.5072 336.247 90.5072H331.75ZM333.975 88.6848H335.789C336.409 88.6848 336.862 88.5664 337.146 88.3296C337.43 88.0894 337.572 87.7702 337.572 87.3721C337.572 87.0804 337.502 86.823 337.362 86.5999C337.221 86.3769 337.021 86.2019 336.76 86.0749C336.504 85.9479 336.197 85.8844 335.841 85.8844H333.975V88.6848ZM333.975 84.3761H335.625C335.93 84.3761 336.2 84.3229 336.437 84.2165C336.677 84.1067 336.865 83.9522 337.002 83.7532C337.143 83.5541 337.213 83.3156 337.213 83.0376C337.213 82.6567 337.077 82.3495 336.807 82.1162C336.54 81.8828 336.159 81.7661 335.666 81.7661H333.975V84.3761Z" fill="white"/>
<path d="M344.579 90.5072H342.194L345.828 79.9644H348.695L352.324 90.5072H349.939L347.303 82.3736H347.22L344.579 90.5072ZM344.43 86.3631H350.062V88.1031H344.43V86.3631Z" fill="white"/>
<path d="M355.038 79.9644H357.782L360.68 87.0478H360.804L363.702 79.9644H366.447V90.5072H364.288V83.6451H364.201L361.477 90.4557H360.007L357.284 83.6193H357.196V90.5072H355.038V79.9644Z" fill="white"/>
<path d="M371.541 90.5072H369.157L372.79 79.9644H375.658L379.286 90.5072H376.901L374.265 82.3736H374.183L371.541 90.5072ZM371.392 86.3631H377.025V88.1031H371.392V86.3631Z" fill="white"/>
<path fill-rule="evenodd" clip-rule="evenodd" d="M125.727 38.5061V44.004C123.731 43.0044 119.141 41.305 116.746 42.5045V70.2434C92.796 64.246 35.4161 61.9967 9.7199 77.9902C9.72103 77.918 10.2182 46.2547 9.7199 45.5034C9.22094 44.7537 8.32284 44.7037 1.73662 47.5026V40.2553L13.7115 34.008V17.2648H25.6864V27.0107H26.9338L55.1248 12.5167L64.605 17.2648L41.4037 33.508L85.0621 11.0172L125.727 38.5061ZM40.6552 40.5053V62.9961H45.6446V56.7488H58.6176C57.8692 56.4989 56.3722 55.1994 56.3722 52.0007H45.6446V40.5053H40.6552ZM61.6112 44.7537C60.6132 45.087 58.5676 46.703 58.368 50.5013C58.1684 54.2997 60.1144 56.249 61.1123 56.7488H87.5571V61.9967H93.5445V50.7513C93.5445 46.7529 90.717 45.0869 89.3033 44.7537H61.6112ZM56.3722 41.5048C49.7862 39.3058 47.6407 41.5881 47.3911 43.0042C47.0233 45.0924 46.8922 46.253 47.3911 48.5021C47.8901 50.7512 48.8048 50.668 49.387 50.7513L56.3722 50.5013C55.973 45.5033 60.0314 43.4207 62.1103 43.0042L56.3722 41.5048ZM79.5738 24.7615L110.509 38.0064L84.0643 22.0129L79.5738 24.7615Z" fill="#3981D5"/>
<path fill-rule="evenodd" clip-rule="evenodd" d="M7.78256 79.1466C42.6308 61.0552 102.187 66.0999 127.61 70.8837C58.9552 73.2031 43.8175 95.2375 44.8306 105.965C34.9498 104.774 27.0649 103.355 20.8392 101.795C23.5649 92.4511 35.5424 84.7412 41.2123 82.0458L38.1732 79.4365C21.2044 84.9913 15.7192 95.1577 14.9487 100.123C-7.0539 93.0269 -0.519876 83.82 7.78256 79.1466ZM46.1327 76.3923L48.4482 78.7117L60.4599 74.6527L58.868 73.0581L46.1327 76.3923ZM67.2617 71.6085L68.7089 73.0581C71.1691 72.3816 76.871 71.0286 79.9969 71.0286L78.5497 70.1588L67.2617 71.6085Z" fill="white"/>
</svg>
